<svg xmlns="http://www.w3.org/2000/svg" viewBox="0 0 218.72 166.96"><defs><style>.cls-1{fill:#5ccdfd;}.cls-2{fill:#e4f5fd;}.cls-3{fill:#419ebb;}.cls-4{fill:#fbc53f;}.cls-5{fill:#27859c;}.cls-6{fill:#fefefe;}</style></defs><g id="Layer_2" data-name="Layer 2"><g id="Layer_1-2" data-name="Layer 1"><path class="cls-1" d="M61.33,166.85c-11.07.43-21.24-2.66-30.7-8.16-14.16-8.23-23.87-20.31-28.12-36-5.8-21.39-1.57-41,13.09-58A59,59,0,0,1,49.09,45.27a60.35,60.35,0,0,1,41.63,6.1,6,6,0,0,0,.84.29c-.38,2.43-2.52,3.45-4.08,4.83-9.42,8.36-19.7,15.59-30.05,22.75-2.88,2-6.23,3.45-8.35,6.44a4,4,0,0,0-2.54.57c-5.31,3-10.55,6.26-16,9-5.06,2.5-8.7,6-10.48,11.4a10.3,10.3,0,0,0-6,6.18c-2.52,6.49-.17,12.18,3.16,17.64,2.57,4.23,6.25,6.52,11.37,6.06a5.3,5.3,0,0,1,1.25.72c3.4,3.4,7.51,4.68,12.28,4.81,3.62.09,6.93-1.82,10.54-1.21a5.61,5.61,0,0,0,.78,2.86c.87,2.52,1.79,5,2.58,7.55C57.63,156.48,60.19,161.42,61.33,166.85Z"/><path class="cls-2" d="M49.08,85.68c2.12-3,5.47-4.45,8.35-6.44,10.35-7.16,20.63-14.39,30.05-22.75,1.56-1.38,3.7-2.4,4.08-4.83a3.33,3.33,0,0,0,2.7-1.45C96.93,47,99.81,44.05,102.6,41a3.14,3.14,0,0,1,2.81-1.36A79.14,79.14,0,0,0,105.73,61a169.54,169.54,0,0,0,12.52,42.25c6,13.64,12.52,26.95,24.93,36.19-8.57-1.15-17.14-2.25-25.7-3.5-1.36-.2-1.86,1-2.88,1.16-.24-1.63-1.53-1.29-2.55-1.32a270,270,0,0,0-34.83,1.34l-8.86.64a5.62,5.62,0,0,1-2-2.54A170.84,170.84,0,0,1,49.08,85.68Zm50.33-32.4c-.9-.27-1.08.13-1.29.44-4,5.93-9.48,10.52-15,14.71A226.16,226.16,0,0,1,57.34,85.74c-2.69,1.51-2.41,3.5-1.42,5.52,1.12,2.27,2.84.4,4.09,0,6.66-2.16,13.25-4.55,19.89-6.79q10.45-3.54,21-7c2-.65,2.89-2.1,2-3.87A23.57,23.57,0,0,1,101.25,68,52.67,52.67,0,0,1,99.41,53.28Z"/><path class="cls-3" d="M143.18,139.47c-12.41-9.24-19-22.55-24.93-36.19A169.54,169.54,0,0,1,105.73,61a79.14,79.14,0,0,1-.32-21.41,14.2,14.2,0,0,1,5.62-9.7c3.45-2.78,7.25-2.29,10.92-.26,7.78,4.31,12.92,11.22,17.44,18.51a149.8,149.8,0,0,1,22,62.92c.79,7.22,1,14.53-1.22,21.63-2.63,8.4-8.2,10.8-16.11,7A5,5,0,0,0,143.18,139.47Zm-13.83-37.71c.17,4.15,2.66,7.36,4.54,10.77,3.52,6.37,7.62,12.38,13.54,16.79,4.29,3.2,8.4,1.7,9.87-3.36a22.42,22.42,0,0,0,.77-4.68c.85-12.76-2.21-25-5.85-37a145.72,145.72,0,0,0-11.43-27c-3.66-6.76-7.7-13.18-13.54-18.32-2.25-2-4.79-2.94-7.68-2.1-2.67.77-3.43,3.35-3.84,5.61a48.5,48.5,0,0,0-.09,17.45c.89,4.85,1.17,9.85,3.56,14.32a11,11,0,0,0,.09,2.64,157.44,157.44,0,0,0,8.4,23.45C128,101.06,128.36,101.78,129.35,101.76ZM108.36,44c-1.37.06-1.06,1.15-1.09,2-.37,11.33,1.91,22.25,5.26,33,.26.82.35,2,1.6,1.62s.73-1.37.48-2.28c-.91-3.44-1.84-6.88-2.6-10.35-1.55-7.08-2.79-14.19-2.45-21.49C109.61,45.44,109.68,44.37,108.36,44Zm-.52-5.36c.13.87-.17,2.19.9,2,2-.43,1.24-2.61,1.9-3.94.33-.67-.18-1.65-.92-1.47C107.89,35.6,108.34,37.46,107.84,38.61Z"/><path class="cls-1" d="M77.22,137.15a270,270,0,0,1,34.83-1.34c1,0,2.31-.31,2.55,1.32a65,65,0,0,1-22.76,22.08c-1.19.67-2.24,1.68-3.74,1.68a23.59,23.59,0,0,0-2.3-6.42C83,148.65,79.49,143.22,77.22,137.15Z"/><path class="cls-3" d="M61.33,166.85c-1.14-5.43-3.7-10.37-5.34-15.62-.79-2.54-1.71-5-2.58-7.55,5.39-.7,10.78-1.31,16.14-2.17,2-.32,2.88.16,3.64,2a53.59,53.59,0,0,0,4,7.94,12,12,0,0,1,.06,13.33A37,37,0,0,1,61.33,166.85ZM65.86,147c-.31-1.91-1.31-3.18-3.33-3.13a3.11,3.11,0,0,0-.05,6.21C64.54,150.16,65.49,148.86,65.86,147Z"/><path class="cls-4" d="M164,1.58c-1.15,4-2,7.58-3.23,11-1,2.8.25,3.79,2.53,4.55,1.5.5,3,1.1,4.43,1.69,1.73.68,2,1.76.82,3.2q-6.65,7.83-13.31,15.63c-.67.79-1.38,1.59-2.52,1-1.42-.76-.34-1.71,0-2.53.87-2.22,1.74-4.43,2.71-6.6.85-1.9.65-3.07-1.56-3.88-6.93-2.52-6.94-2.61-2.89-8.89,3.33-5.17,6.76-10.27,10.11-15.41.53-.81,1.12-1.55,2.12-1.27A1.2,1.2,0,0,1,164,1.58Z"/><path class="cls-4" d="M211,112.38a26.48,26.48,0,0,1-4.18,0c-3.23-.55-4.27,1.15-4.49,4-.11,1.48-.37,3-.49,4.44-.17,2.08-1.23,2.61-3,1.79-6-2.71-11.94-5.4-17.84-8.24-.88-.42-2.73-.61-2.18-2.3.51-1.54,1.93-.92,3.1-.77,2.26.3,4.55.5,6.81.8,1.68.22,2.67-.16,2.65-2.13,0-1.58.41-3.17.4-4.75,0-2.72,1.39-2.93,3.51-2.26,7.1,2.25,14.21,4.47,21.31,6.73,1,.32,2.45.61,2.12,2-.28,1.16-1.66.79-2.62.82-1.69,0-3.38,0-5.07,0Z"/><path class="cls-4" d="M203.77,46.28c1,0,1.64-.07,1.87.68a1.7,1.7,0,0,1-.93,2c-3.1,2.14-6.13,4.39-9.32,6.39-1.7,1.06-1.76,2.14-.91,3.69,1,1.74,1.7,3.6,2.78,5.25s.36,2.7-1.24,3c-6.9,1.37-13.83,2.63-20.75,3.9-.78.14-1.72.2-2-.79s.34-1.45,1.1-1.87c2.44-1.33,4.83-2.73,7.29-4,1.6-.84,1.93-1.81.84-3.31-.76-1-1.34-2.2-2-3.28-1.78-2.74-1.55-3.6,1.63-4.65,6-2,12.08-3.87,18.12-5.81C201.51,47.06,202.82,46.6,203.77,46.28Z"/><path class="cls-5" d="M77.24,164.74a12,12,0,0,0-.06-13.33,53.59,53.59,0,0,1-4-7.94c-.76-1.8-1.69-2.28-3.64-2-5.36.86-10.75,1.47-16.14,2.17a5.61,5.61,0,0,1-.78-2.86c1.29-1.09,2.84-1.16,4.43-1.35,3.78-.46,7.54-1.11,11.3-1.68l8.86-.64c2.27,6.07,5.82,11.5,8.58,17.32a23.59,23.59,0,0,1,2.3,6.42A30.88,30.88,0,0,1,77.24,164.74Z"/><path class="cls-3" d="M68.36,137.79c-3.76.57-7.52,1.22-11.3,1.68-1.59.19-3.14.26-4.43,1.35-3.61-.61-6.92,1.3-10.54,1.21-4.77-.13-8.88-1.41-12.28-4.81a5.3,5.3,0,0,0-1.25-.72c-5.11-9.32-9.7-18.78-8.54-29.88,1.78-5.38,5.42-8.9,10.48-11.4,5.49-2.71,10.73-5.92,16-9a4,4,0,0,1,2.54-.57,170.84,170.84,0,0,0,17.31,49.57A5.62,5.62,0,0,0,68.36,137.79Zm-35-21c-1.39-3.74-2.79-7.66-4.33-11.53a1.45,1.45,0,0,0-2.08-.52,1.51,1.51,0,0,0-.92,2q2,5.61,4.05,11.18a1.4,1.4,0,0,0,2,.81A1.7,1.7,0,0,0,33.4,116.77Zm12.44-4.64c-1.35-3.6-2.75-7.43-4.21-11.24a1.38,1.38,0,0,0-1.78-.7c-.92.21-1.51.91-1.24,1.74,1.28,3.87,2.66,7.71,4.07,11.53a1.46,1.46,0,0,0,2,.78C45.58,114,45.88,113.26,45.84,112.13ZM34,102.4c-1.65.17-1.89,1.29-1.47,2.57,1.11,3.39,2.32,6.75,3.5,10.11.42,1.2,1.21,1.88,2.49,1.34s1.16-1.45.77-2.51c-1.21-3.35-2.39-6.72-3.6-10.07C35.44,103.07,35,102.4,34,102.4Z"/><path class="cls-2" d="M20,106.62c-1.16,11.1,3.43,20.56,8.54,29.88-5.12.46-8.8-1.83-11.37-6.06C13.86,125,11.51,119.29,14,112.8A10.3,10.3,0,0,1,20,106.62Z"/><path class="cls-6" d="M99.41,53.28A52.67,52.67,0,0,0,101.25,68a23.57,23.57,0,0,0,1.59,5.66c.91,1.77,0,3.22-2,3.87q-10.48,3.45-21,7C73.26,86.71,66.67,89.1,60,91.26c-1.25.4-3,2.27-4.09,0-1-2-1.27-4,1.42-5.52A226.16,226.16,0,0,0,83.12,68.43c5.52-4.19,11-8.78,15-14.71C98.33,53.41,98.51,53,99.41,53.28Z"/><path class="cls-5" d="M119.2,74.23c-2.39-4.47-2.67-9.47-3.56-14.32a48.5,48.5,0,0,1,.09-17.45c.41-2.26,1.17-4.84,3.84-5.61,2.89-.84,5.43.12,7.68,2.1,5.84,5.14,9.88,11.56,13.54,18.32a145.72,145.72,0,0,1,11.43,27c3.64,12,6.7,24.22,5.85,37a22.42,22.42,0,0,1-.77,4.68c-1.47,5.06-5.58,6.56-9.87,3.36-5.92-4.41-10-10.42-13.54-16.79-1.88-3.41-4.37-6.62-4.54-10.77,3.88-2,7.76-4.07,11.65-6.08a8.54,8.54,0,0,0,4.45-5c2-5.83-1.53-15.36-6.87-18.42a8.58,8.58,0,0,0-6.6-1C127.74,72.3,123.46,73.24,119.2,74.23Z"/><path class="cls-2" d="M119.2,74.23c4.26-1,8.54-1.93,12.78-3a8.58,8.58,0,0,1,6.6,1c5.34,3.06,8.84,12.59,6.87,18.42a8.54,8.54,0,0,1-4.45,5c-3.89,2-7.77,4-11.65,6.08-1,0-1.33-.7-1.66-1.44a157.44,157.44,0,0,1-8.4-23.45A11,11,0,0,1,119.2,74.23Zm11.71,5.52c1.59-.27,3.06-.44,4.49-.8a2.06,2.06,0,0,0,1.66-1.88,2,2,0,0,0-1.53-2,12.68,12.68,0,0,0-6.7-.66c-1.55.35-3.31,1.21-3.32,2.92s1.85,1.67,3.22,1.85A17.37,17.37,0,0,1,130.91,79.75Z"/><path class="cls-1" d="M108.36,44c1.32.4,1.25,1.47,1.2,2.45-.34,7.3.9,14.41,2.45,21.49.76,3.47,1.69,6.91,2.6,10.35.25.91.65,1.91-.48,2.28s-1.34-.8-1.6-1.62c-3.35-10.74-5.63-21.66-5.26-33C107.3,45.12,107,44,108.36,44Z"/><path class="cls-1" d="M107.84,38.61c.5-1.15,0-3,1.88-3.46.74-.18,1.25.8.92,1.47-.66,1.33.08,3.51-1.9,3.94C107.67,40.8,108,39.48,107.84,38.61Z"/><path class="cls-2" d="M65.86,147c-.37,1.88-1.32,3.18-3.38,3.08a3.11,3.11,0,0,1,.05-6.21C64.55,143.8,65.55,145.07,65.86,147Z"/><path class="cls-2" d="M33.4,116.77a1.7,1.7,0,0,1-1.31,1.9,1.4,1.4,0,0,1-2-.81Q28,112.3,26.07,106.68a1.51,1.51,0,0,1,.92-2,1.45,1.45,0,0,1,2.08.52C30.61,109.11,32,113,33.4,116.77Z"/><path class="cls-2" d="M45.84,112.13c0,1.13-.26,1.83-1.15,2.11a1.46,1.46,0,0,1-2-.78c-1.41-3.82-2.79-7.66-4.07-11.53-.27-.83.32-1.53,1.24-1.74a1.38,1.38,0,0,1,1.78.7C43.09,104.7,44.49,108.53,45.84,112.13Z"/><path class="cls-2" d="M34,102.4c1,0,1.41.67,1.69,1.44,1.21,3.35,2.39,6.72,3.6,10.07.39,1.06.39,2-.77,2.51s-2.07-.14-2.49-1.34c-1.18-3.36-2.39-6.72-3.5-10.11C32.14,103.69,32.38,102.57,34,102.4Z"/><path class="cls-6" d="M130.91,79.75a17.37,17.37,0,0,0-2.18-.54c-1.37-.18-3.22-.14-3.22-1.85s1.77-2.57,3.32-2.92a12.68,12.68,0,0,1,6.7.66,2,2,0,0,1,1.53,2A2.06,2.06,0,0,1,135.4,79C134,79.31,132.5,79.48,130.91,79.75Z"/></g></g></svg>